<?xml version="1.0" standalone="no"?><!DOCTYPE svg PUBLIC "-//W3C//DTD SVG 1.1//EN" "http://www.w3.org/Graphics/SVG/1.1/DTD/svg11.dtd"><svg t="1743413999085" class="icon" viewBox="0 0 1024 1024" version="1.1" xmlns="http://www.w3.org/2000/svg" p-id="52857" xmlns:xlink="http://www.w3.org/1999/xlink" width="128" height="128"><path d="M512 105.73l141.27 222.15a70 70 0 0 0 42.51 30.46l245.85 59.83-173.44 211a70 70 0 0 0-15.58 51.44l24.22 241.57-236.77-103.64a70 70 0 0 0-56.12 0l-236.77 103.6 24.22-241.57a70 70 0 0 0-15.58-51.44l-173.44-211 245.85-59.83a70 70 0 0 0 42.51-30.46L512 105.73m0-82.53a55.54 55.54 0 0 0-50.39 31.33L311.66 290.32l-262.54 63.9C3 360.91-15.38 417.56 18 450.07l183.74 223.52L175.53 935c-6.23 36.32 22.63 65.82 55.38 65.82a56 56 0 0 0 26.16-6.58L512 882.67l254.93 111.55a56 56 0 0 0 26.16 6.58c32.74 0 61.61-29.5 55.38-65.82l-26.21-261.39L1006 450.07c33.36-32.51 15-89.16-31.14-95.85l-262.54-63.9-150-235.79A55.54 55.54 0 0 0 512 23.2z" fill="#000000" p-id="52858"></path><path d="M511.23 692.52c-81.86 0-148.46-66.6-148.46-148.46a35 35 0 0 1 70 0 78.47 78.47 0 0 0 156.93 0 35 35 0 0 1 70 0c0 81.86-66.6 148.46-148.47 148.46z" fill="#000000" p-id="52859"></path></svg>