<?xml version="1.0" standalone="no"?>
<!DOCTYPE svg PUBLIC "-//W3C//DTD SVG 1.1//EN" "http://www.w3.org/Graphics/SVG/1.1/DTD/svg11.dtd"><svg t="1743412034018"
	class="icon" viewBox="0 0 1024 1024" version="1.1" xmlns="http://www.w3.org/2000/svg" p-id="6405"
	xmlns:xlink="http://www.w3.org/1999/xlink" width="128" height="128">
	<path
		d="M1011.0976 416.4608L578.3552 79.9744c-37.1712-29.0816-95.6416-29.0816-132.8128 0L13.0048 416.4608c-14.848 11.5712-17.2032 32.6656-5.7344 47.104 11.5712 14.4384 32.6656 16.896 47.5136 5.632l13.4144-10.752v406.7328c0 57.5488 61.7472 100.7616 116.0192 100.7616h682.5984c53.5552 0 88.8832-40.448 88.8832-100.7616V459.8784l12.4928 9.4208c6.2464 4.8128 13.9264 7.2704 21.504 7.2704 10.0352 0 20.1728-4.3008 26.9312-12.8 11.6736-14.6432 9.3184-35.84-5.5296-47.3088zM619.6224 898.2528H410.2144V723.6608c0-57.856 46.8992-104.7552 104.7552-104.7552s104.7552 46.8992 104.7552 104.7552v174.592z m267.9808-33.1776c0 22.2208-6.2464 33.5872-20.5824 33.5872H689.4592V723.6608c0-96.3584-78.1312-174.592-174.592-174.592s-174.592 78.1312-174.592 174.592v175.0016H184.4224c-21.504 0-47.7184-18.2272-47.7184-33.5872V405.0944l350.6176-272.384c12.6976-9.8304 35.4304-9.8304 47.8208 0l352.0512 274.0224v458.3424h0.3072z"
		 p-id="6406"></path>
</svg>