<?xml version="1.0" standalone="no"?>
<!DOCTYPE svg PUBLIC "-//W3C//DTD SVG 1.1//EN" "http://www.w3.org/Graphics/SVG/1.1/DTD/svg11.dtd"><svg t="1743237428105"
	class="icon" viewBox="0 0 1024 1024" version="1.1" xmlns="http://www.w3.org/2000/svg" p-id="2722"
	xmlns:xlink="http://www.w3.org/1999/xlink" width="128" height="128">
	<path
		d="M913.728 377.92v-58.88c0-61.696-46.08-130.752-107.2-130.752H536.32l-8.128-16.192C515.136 144.832 488.96 127.808 460.608 128H164.48C108.16 128.704 63.168 178.816 64 239.744v608.576c-0.832 60.864 44.16 110.976 100.48 111.68h695.04c56.32-0.704 101.312-50.816 100.48-111.68V474.88c0-35.264-17.664-70.528-46.144-96.96l-0.128-0.064z m-77.376-29.44h-221.44l-36.928-76.416h229.44c12.352 0 29.888 24.96 29.888 47.04v29.376h-0.96z m46.08 124.928v373.376c0.32 14.4-9.728 26.624-23.04 27.904H164.352c-13.44-0.896-23.744-13.376-23.04-27.904V238.336c-0.32-14.464 9.728-26.624 23.04-27.968h294.656L556.736 410.24a39.68 39.68 0 0 0 33.92 22.016h252.16c15.04 0.064 39.68 26.496 39.68 41.152z"
		 p-id="2723"></path>
	<path
		d="M256 704m44.8 0l486.4 0q44.8 0 44.8 44.8l0 0q0 44.8-44.8 44.8l-486.4 0q-44.8 0-44.8-44.8l0 0q0-44.8 44.8-44.8Z"
		p-id="2724"></path>
</svg>