<?xml version="1.0" standalone="no"?><!DOCTYPE svg PUBLIC "-//W3C//DTD SVG 1.1//EN" "http://www.w3.org/Graphics/SVG/1.1/DTD/svg11.dtd"><svg t="1743237445469" class="icon" viewBox="0 0 1024 1024" version="1.1" xmlns="http://www.w3.org/2000/svg" p-id="1500" xmlns:xlink="http://www.w3.org/1999/xlink" width="128" height="128"><path d="M979.07232 995.552H44.92832c-24.64 0.192-44.704-20.544-44.928-46.336V188.576c0-25.92 20.416-46.368 44.928-46.368h934.144c25.088 0 44.928 21.088 44.928 46.368v760.64c0 25.856-20.416 46.336-44.928 46.336z" fill="#1E6FFF" p-id="1501"></path><path d="M896.64032 938.656H155.77632c-23.424 0-41.984-20.672-41.984-45.504V273.056c0-25.408 19.072-45.504 41.984-45.504H896.64032c23.488 0 42.016 20.704 42.016 45.504v620.096c0.512 24.832-18.56 45.504-42.016 45.504z" fill="#FFFFFF" p-id="1502"></path><path d="M979.07232 995.552H44.92832C19.84032 995.552 0.00032 975.712 0.00032 951.904V384.96c0-24.352 20.416-43.616 44.928-43.616h934.144c25.088 0 44.928 19.84 44.928 43.616v566.944c0 24.384-20.416 43.648-44.928 43.648z" fill="#1E6FFF" p-id="1503"></path><path d="M654.20832 369.728H0.00032V84.256C-0.09568 53.536 22.36832 28.576 50.24032 28.448h391.776c22.208 0 41.728 15.936 48.288 39.84l163.904 301.504v-0.064z" fill="#1E6FFF" p-id="1504"></path><path d="M199.10432 739.552m49.792 0l526.208 0q49.792 0 49.792 49.792l0-0.032q0 49.792-49.792 49.792l-526.208 0q-49.792 0-49.792-49.792l0 0.032q0-49.792 49.792-49.792Z" fill="#FFFFFF" p-id="1505"></path></svg>