<?xml version="1.0" standalone="no"?><!DOCTYPE svg PUBLIC "-//W3C//DTD SVG 1.1//EN" "http://www.w3.org/Graphics/SVG/1.1/DTD/svg11.dtd"><svg t="1743411591866" class="icon" viewBox="0 0 1024 1024" version="1.1" xmlns="http://www.w3.org/2000/svg" p-id="7994" xmlns:xlink="http://www.w3.org/1999/xlink" width="128" height="128"><path d="M974.4 319.104v58.816l0.128 0.064c30.528 26.432 49.472 61.696 49.472 96.96v373.376A109.568 109.568 0 0 1 916.352 960H171.648A109.568 109.568 0 0 1 64 848.32V239.744A109.568 109.568 0 0 1 171.648 128h317.248c30.464-0.192 58.432 16.832 72.512 44.096l8.704 16.192h289.472c65.408 0 114.816 69.12 114.816 130.816z m-320.128 29.44h237.248l1.088-0.064v-29.44c0-22.016-18.88-46.976-32.064-46.976H614.72l39.552 76.48zM300.8 704q-4.416 0-8.768 0.832-4.288 0.896-8.32 2.56-4.16 1.728-7.808 4.16-3.648 2.432-6.784 5.568-3.136 3.136-5.568 6.784-2.432 3.648-4.16 7.744-1.664 4.096-2.56 8.384Q256 744.384 256 748.8t0.832 8.768q0.896 4.288 2.56 8.32 1.728 4.16 4.16 7.808 2.432 3.648 5.568 6.784 3.136 3.136 6.784 5.568 3.648 2.432 7.744 4.16 4.096 1.664 8.384 2.56 4.352 0.832 8.768 0.832h486.4q4.416 0 8.768-0.896 4.288-0.832 8.32-2.56 4.16-1.664 7.808-4.096 3.648-2.432 6.784-5.568 3.136-3.136 5.568-6.784 2.432-3.648 4.16-7.744 1.664-4.096 2.56-8.384 0.832-4.352 0.832-8.768t-0.896-8.768q-0.832-4.288-2.56-8.32-1.664-4.16-4.096-7.808-2.432-3.648-5.568-6.784-3.136-3.136-6.784-5.568-3.648-2.432-7.744-4.16-4.096-1.664-8.384-2.56Q791.616 704 787.2 704H300.8z" fill="#1E6FFF" p-id="7995"></path></svg>